HIERARCHY
ROOT hip
{
  OFFSET -271.653 81.6942 16.8489
  CHANNELS 6 Xposition Yposition Zposition Zrotation Xrotation Yrotation
  JOINT abdomen
  {
    OFFSET 0 20.6881 -0.73152
    CHANNELS 3 Zrotation Xrotation Yrotation
    JOINT chest
    {
      OFFSET 0 11.7043 -0.48768
      CHANNELS 3 Zrotation Xrotation Yrotation
      JOINT neck
      {
        OFFSET 0 22.1894 -2.19456
        CHANNELS 3 Zrotation Xrotation Yrotation
        JOINT head
        {
          OFFSET -0.24384 7.07133 1.2192
          CHANNELS 3 Zrotation Xrotation Yrotation
          JOINT leftEye
          {
            OFFSET 4.14528 8.04674 8.04672
            CHANNELS 3 Zrotation Xrotation Yrotation
            End Site
            {
              OFFSET 1 0 0
            }
          }
          JOINT rightEye
          {
            OFFSET -3.6576 8.04674 8.04672
            CHANNELS 3 Zrotation Xrotation Yrotation
            End Site
            {
              OFFSET 1 0 0
            }
          }
        }
      }
      JOINT rCollar
      {
        OFFSET -2.68224 19.2634 -4.8768
        CHANNELS 3 Zrotation Xrotation Yrotation
        JOINT rShldr
        {
          OFFSET -8.77824 -1.95073 1.46304
          CHANNELS 3 Zrotation Xrotation Yrotation
          JOINT rForeArm
          {
            OFFSET -28.1742 -1.7115 0.48768
            CHANNELS 3 Zrotation Xrotation Yrotation
            JOINT rHand
            {
              OFFSET -22.5879 0.773209 7.07136
              CHANNELS 3 Zrotation Xrotation Yrotation
              JOINT rThumb1
              {
                OFFSET -1.2192 -0.487915 3.41376
                CHANNELS 3 Zrotation Xrotation Yrotation
                JOINT rThumb2
                {
                  OFFSET -3.37035 -0.52449 3.41376
                  CHANNELS 3 Zrotation Xrotation Yrotation
                  End Site
                  {
                    OFFSET -1.78271 -1.18214 1.43049
                  }
                }
              }
              JOINT rIndex1
              {
                OFFSET -7.75947 0.938293 5.60832
                CHANNELS 3 Zrotation Xrotation Yrotation
                JOINT rIndex2
                {
                  OFFSET -2.54057 -0.884171 1.56538
                  CHANNELS 3 Zrotation Xrotation Yrotation
                  End Site
                  {
                    OFFSET -1.62519 -0.234802 1.16502
                  }
                }
              }
              JOINT rMid1
              {
                OFFSET -8.24714 1.18213 3.41376
                CHANNELS 3 Zrotation Xrotation Yrotation
                JOINT rMid2
                {
                  OFFSET -3.10165 -0.590103 1.0647
                  CHANNELS 3 Zrotation Xrotation Yrotation
                  End Site
                  {
                    OFFSET -2.48547 -0.328903 0.83742
                  }
                }
              }
              JOINT rRing1
              {
                OFFSET -8.82822 0.546677 1.51678
                CHANNELS 3 Zrotation Xrotation Yrotation
                JOINT rRing2
                {
                  OFFSET -2.60934 -0.819778 -0.0198488
                  CHANNELS 3 Zrotation Xrotation Yrotation
                  End Site
                  {
                    OFFSET -2.33842 -0.294052 0.168128
                  }
                }
              }
              JOINT rPinky1
              {
                OFFSET -8.27202 -0.0477905 -0.4584
                CHANNELS 3 Zrotation Xrotation Yrotation
                JOINT rPinky2
                {
                  OFFSET -1.82734 -0.647385 -0.700984
                  CHANNELS 3 Zrotation Xrotation Yrotation
                  End Site
                  {
                    OFFSET -1.69225 -0.51767 -0.607171
                  }
                }
              }
            }
          }
        }
      }
      JOINT lCollar
      {
        OFFSET 2.68224 19.2634 -4.8768
        CHANNELS 3 Zrotation Xrotation Yrotation
        JOINT lShldr
        {
          OFFSET 8.77824 -1.95073 1.46304
          CHANNELS 3 Zrotation Xrotation Yrotation
          JOINT lForeArm
          {
            OFFSET 28.1742 -1.7115 0.48768
            CHANNELS 3 Zrotation Xrotation Yrotation
            JOINT lHand
            {
              OFFSET 22.5879 0.773209 7.07136
              CHANNELS 3 Zrotation Xrotation Yrotation
              JOINT lThumb1
              {
                OFFSET 1.2192 -0.487915 3.41376
                CHANNELS 3 Zrotation Xrotation Yrotation
                JOINT lThumb2
                {
                  OFFSET 3.37035 -0.52449 3.41376
                  CHANNELS 3 Zrotation Xrotation Yrotation
                  End Site
                  {
                    OFFSET 1.78271 -1.18214 1.43049
                  }
                }
              }
              JOINT lIndex1
              {
                OFFSET 7.75947 0.938293 5.60832
                CHANNELS 3 Zrotation Xrotation Yrotation
                JOINT lIndex2
                {
                  OFFSET 2.54057 -0.884171 1.56538
                  CHANNELS 3 Zrotation Xrotation Yrotation
                  End Site
                  {
                    OFFSET 1.62519 -0.234802 1.16502
                  }
                }
              }
              JOINT lMid1
              {
                OFFSET 8.24714 1.18213 3.41376
                CHANNELS 3 Zrotation Xrotation Yrotation
                JOINT lMid2
                {
                  OFFSET 3.10165 -0.590103 1.0647
                  CHANNELS 3 Zrotation Xrotation Yrotation
                  End Site
                  {
                    OFFSET 2.48547 -0.328903 0.83742
                  }
                }
              }
              JOINT lRing1
              {
                OFFSET 8.82822 0.546677 1.51678
                CHANNELS 3 Zrotation Xrotation Yrotation
                JOINT lRing2
                {
                  OFFSET 2.60934 -0.819778 -0.0198488
                  CHANNELS 3 Zrotation Xrotation Yrotation
                  End Site
                  {
                    OFFSET 2.33842 -0.294052 0.168128
                  }
                }
              }
              JOINT lPinky1
              {
                OFFSET 8.27202 -0.0477905 -0.4584
                CHANNELS 3 Zrotation Xrotation Yrotation
                JOINT lPinky2
                {
                  OFFSET 1.82734 -0.647385 -0.700984
                  CHANNELS 3 Zrotation Xrotation Yrotation
                  End Site
                  {
                    OFFSET 1.69225 -0.51767 -0.607171
                  }
                }
              }
            }
          }
        }
      }
    }
  }
  JOINT rButtock
  {
    OFFSET -8.77824 4.35084 1.2192
    CHANNELS 3 Zrotation Xrotation Yrotation
    JOINT rThigh
    {
      OFFSET 0 -1.70687 -2.19456
      CHANNELS 3 Zrotation Xrotation Yrotation
      JOINT rShin
      {
        OFFSET 0 -36.8199 0.73152
        CHANNELS 3 Zrotation Xrotation Yrotation
        JOINT rFoot
        {
          OFFSET 0.73152 -45.1104 -5.12064
          CHANNELS 3 Zrotation Xrotation Yrotation
          End Site
          {
            OFFSET -1.1221 -3.69964 12.103
          }
        }
      }
    }
  }
  JOINT lButtock
  {
    OFFSET 8.77824 4.35084 1.2192
    CHANNELS 3 Zrotation Xrotation Yrotation
    JOINT lThigh
    {
      OFFSET 0 -1.70687 -2.19456
      CHANNELS 3 Zrotation Xrotation Yrotation
      JOINT lShin
      {
        OFFSET 0 -36.8199 0.73152
        CHANNELS 3 Zrotation Xrotation Yrotation
        JOINT lFoot
        {
          OFFSET -0.73152 -45.1104 -5.12064
          CHANNELS 3 Zrotation Xrotation Yrotation
          End Site
          {
            OFFSET 1.1221 -3.69964 12.103
          }
        }
      }
    }
  }
}
MOTION
Frames:	4
Frame Time:	0.00833333
54.1597 83.5594 31.1236 -0.361086 -4.6379 -84.333 -5.48008 2.79787 -12.7236 4.79607 -5.43095 -3.16802 -5.38237 -6.73599 -2.42793 9.42887 -4.71245 -2.41393 -0 0 0 -0 0 0 7.57745e-014 -2.88824e-013 -3.21499e-014 85.9599 31.7766 -45.7319 -23.7597 -18.6551 48.8583 -0.01886 -3.91738 -0.55142 1.51782e-009 2.56223e-010 -3.11748e-010 2.62392e-009 4.44179e-010 -5.40226e-010 1.51783e-009 2.56216e-010 -3.11771e-010 7.73091 5.47488 0.417314 1.51782e-009 2.56216e-010 -3.11748e-010 2.90554 0.965183 0.102902 1.51783e-009 2.56215e-010 -3.11751e-010 10.2786 0.731801 0.0259123 1.51782e-009 2.56214e-010 -3.11744e-010 2.22167 -0.733487 -0.20892 7.57902e-014 -2.88815e-013 -3.23293e-014 -42.7306 37.1484 -48.5136 25.8727 -23.1125 -56.2444 0.0143542 -3.42317 0.481671 1.32507e-009 2.03073e-009 -1.99392e-009 2.29782e-009 3.51852e-009 -3.45181e-009 1.32506e-009 2.03073e-009 -1.99392e-009 -7.73091 5.47488 -0.417314 1.32507e-009 2.03072e-009 -1.99392e-009 -2.90554 0.965183 -0.102902 1.32507e-009 2.03073e-009 -1.99392e-009 -10.2786 0.731801 -0.0259123 1.32508e-009 2.03073e-009 -1.99393e-009 -2.22167 -0.733487 0.20892 -2.03217e-016 0 -3.88251e-019 -99.0863 -82.7938 -101.422 -2.86452 83.2815 -6.05818 -12.0403 -1.86245 134.938 2.03217e-016 0 3.88251e-019 -7.83058 3.26702 -4.43269 -0.16536 20.8339 -1.71853 0.162001 -11.1078 -5.06833 
53.561 83.4152 31.1099 -0.167218 -4.73518 -84.4658 -5.57686 2.68127 -12.6896 4.78549 -5.38212 -3.17056 -5.36155 -6.74749 -2.40849 9.40146 -4.83585 -2.37082 -0 0 0 -0 0 0 1.28405e-013 -5.74194e-013 -5.71009e-014 85.8292 32.0033 -45.3915 -23.7794 -18.6909 48.9193 -0.0195265 -3.98606 -0.561119 2.11873e-009 5.03304e-010 -5.02725e-010 3.66288e-009 8.7317e-010 -8.7205e-010 2.11874e-009 5.03297e-010 -5.0275e-010 7.73091 5.47488 0.417314 2.11873e-009 5.03299e-010 -5.02728e-010 2.90554 0.965183 0.102902 2.11873e-009 5.03298e-010 -5.02728e-010 10.2786 0.731801 0.0259123 2.11872e-009 5.03296e-010 -5.02722e-010 2.22167 -0.733487 -0.20892 1.28433e-013 -5.74184e-013 -5.72997e-014 -42.9535 36.9113 -48.246 25.8831 -23.1386 -56.2867 0.0136782 -3.33717 0.469544 2.04848e-009 3.00993e-009 -2.76125e-009 3.55179e-009 5.21395e-009 -4.77887e-009 2.04847e-009 3.00992e-009 -2.76125e-009 -7.73091 5.47488 -0.417314 2.04848e-009 3.00993e-009 -2.76125e-009 -2.90554 0.965183 -0.102902 2.04848e-009 3.00993e-009 -2.76125e-009 -10.2786 0.731801 -0.0259123 2.04849e-009 3.00993e-009 -2.76126e-009 -2.22167 -0.733487 0.20892 -2.03217e-016 0 -3.88251e-019 -99.3502 -82.7779 -101.702 10.1761 84.357 -10.3289 -4.52347 6.72712 132.713 2.03217e-016 0 3.88251e-019 -7.85501 3.35003 -4.40348 -0.16448 20.9715 -1.69531 0.108051 -11.0952 -5.32463 
52.9897 83.2881 31.0832 0.0394214 -4.64479 -84.6749 -5.44063 2.57659 -12.5406 4.79901 -5.24846 -3.15946 -5.35532 -6.74477 -2.40357 9.38554 -4.96884 -2.35115 -0 0 0 -0 0 0 1.08994e-013 -4.55632e-013 -5.23716e-014 85.7131 32.2025 -45.0063 -23.8 -18.7283 48.9829 -0.0202616 -4.06103 -0.571707 1.80636e-009 3.99347e-010 -4.13408e-010 3.12252e-009 6.92968e-010 -7.174e-010 1.80637e-009 3.99344e-010 -4.13429e-010 7.73091 5.47488 0.417314 1.80636e-009 3.99346e-010 -4.13411e-010 2.90554 0.965183 0.102902 1.80636e-009 3.99344e-010 -4.1341e-010 10.2786 0.731801 0.0259123 1.80635e-009 3.99342e-010 -4.13402e-010 2.22167 -0.733487 -0.20892 1.08944e-013 -4.55624e-013 -5.25964e-014 -43.1802 36.7408 -47.9877 25.8898 -23.1554 -56.3142 0.0136249 -3.32795 0.468246 1.83618e-009 2.62738e-009 -2.33916e-009 3.18337e-009 4.55085e-009 -4.04793e-009 1.83618e-009 2.62738e-009 -2.33916e-009 -7.73091 5.47488 -0.417314 1.83618e-009 2.62738e-009 -2.33916e-009 -2.90554 0.965183 -0.102902 1.83618e-009 2.62738e-009 -2.33916e-009 -10.2786 0.731801 -0.0259123 1.83619e-009 2.62739e-009 -2.33917e-009 -2.22167 -0.733487 0.20892 -2.03217e-016 0 -3.88251e-019 -101.088 -82.8212 -103.571 45.7006 83.8334 -18.2573 14.5424 37.0961 141.66 2.03217e-016 0 3.88251e-019 -7.71751 3.52239 -4.43466 -0.144241 20.6892 -1.54409 0.00195254 -10.8072 -5.55864 
52.4324 83.1806 31.0422 0.26102 -4.42849 -84.9329 -5.14478 2.47401 -12.3079 4.8261 -5.05328 -3.13848 -5.36274 -6.72995 -2.41158 9.3815 -5.11364 -2.35171 -0 0 0 -0 0 0 4.61146e-014 -1.0462e-013 -2.78702e-014 85.6057 32.3773 -44.567 -23.8214 -18.7673 49.0492 -0.0211045 -4.14473 -0.583531 9.13178e-010 6.7093e-011 -1.44535e-010 1.5777e-009 1.16619e-010 -2.51164e-010 9.13184e-010 6.70937e-011 -1.4455e-010 7.73091 5.47488 0.417314 9.13177e-010 6.70954e-011 -1.44539e-010 2.90554 0.965183 0.102902 9.13185e-010 6.70944e-011 -1.44535e-010 10.2786 0.731801 0.0259123 9.13171e-010 6.70916e-011 -1.44526e-010 2.22167 -0.733487 -0.20892 4.59257e-014 -1.04615e-013 -2.8128e-014 -43.422 36.6338 -47.7241 25.8934 -23.1643 -56.3288 0.0139586 -3.36785 0.473873 1.0405e-009 1.38457e-009 -1.15762e-009 1.80337e-009 2.39774e-009 -2.00292e-009 1.04049e-009 1.38457e-009 -1.15761e-009 -7.73091 5.47488 -0.417314 1.0405e-009 1.38457e-009 -1.15762e-009 -2.90554 0.965183 -0.102902 1.0405e-009 1.38457e-009 -1.15762e-009 -10.2786 0.731801 -0.0259123 1.04051e-009 1.38457e-009 -1.15764e-009 -2.22167 -0.733487 0.20892 -2.03217e-016 0 -3.88251e-019 -103.616 -82.8837 -106.303 92.9074 82.1362 -24.6927 176.821 86.6431 -5.47597 2.03217e-016 0 3.88251e-019 -7.46788 3.74617 -4.50985 -0.106739 20.1235 -1.30544 -0.139215 -10.3307 -5.78507 
